<svg xmlns="http://www.w3.org/2000/svg" viewBox="0 0 200 200" role="img" aria-label="FirstPharmaJob favicon">
  <defs>
    <linearGradient id="g" x1="0%" y1="0%" x2="100%" y2="100%">
      <stop offset="0%" stop-color="#2563eb" />
      <stop offset="100%" stop-color="#0891b2" />
    </linearGradient>
    <clipPath id="c"><circle cx="100" cy="100" r="70" /></clipPath>
  </defs>
  <circle cx="100" cy="100" r="95" fill="url(#g)" />
  <circle cx="100" cy="100" r="82" fill="none" stroke="#38bdf8" stroke-width="6" />
  <circle cx="38" cy="100" r="10" fill="#38bdf8" />
  <circle cx="162" cy="100" r="10" fill="#38bdf8" />
  <g clip-path="url(#c)">
    <path fill="#d4af37" d="M100 42c-22 0-40 16-40 36 0 14 9 26 22 32v18h-8a4 4 0 0 0-4 4v10h60v-10a4 4 0 0 0-4-4h-8v-18c13-6 22-18 22-32 0-20-18-36-40-36Zm0 12c15 0 28 10 28 24 0 11-8 20-18 23a6 6 0 0 0-4 5v20h-12v-20a6 6 0 0 0-4-5c-10-3-18-12-18-23 0-14 13-24 28-24Z" />
  </g>
</svg>
