<svg width="180" height="180" viewBox="0 0 180 180" fill="none" xmlns="http://www.w3.org/2000/svg">
  <!-- Apple Touch Icon - larger version -->
  <defs>
    <linearGradient id="appleBrainGradient" x1="0%" y1="0%" x2="100%" y2="100%">
      <stop offset="0%" style="stop-color:#3B82F6;stop-opacity:1" />
      <stop offset="50%" style="stop-color:#8B5CF6;stop-opacity:1" />
      <stop offset="100%" style="stop-color:#EC4899;stop-opacity:1" />
    </linearGradient>
  </defs>
  
  <!-- Background with rounded corners for iOS -->
  <rect width="180" height="180" rx="40" ry="40" fill="white"/>
  
  <!-- Main brain shape (centered and larger) -->
  <path d="M90 30C115 30 135 50 135 75C135 82.5 132.5 90 127.5 96C145 100.5 157.5 117.5 157.5 140C157.5 148.75 151.25 155 142.5 155H37.5C28.75 155 22.5 148.75 22.5 140C22.5 117.5 35 100.5 52.5 96C47.5 90 45 82.5 45 75C45 50 65 30 90 30Z" fill="url(#appleBrainGradient)"/>
  
  <!-- Brain details/folds -->
  <path d="M67.5 60C72.5 55 82.5 55 90 60C97.5 55 107.5 55 112.5 60" stroke="white" stroke-width="4" stroke-linecap="round" fill="none" opacity="0.8"/>
  <path d="M55 85C60 80 70 80 77.5 85C85 80 95 80 100 85" stroke="white" stroke-width="4" stroke-linecap="round" fill="none" opacity="0.8"/>
  <path d="M77.5 110C82.5 105 92.5 105 102.5 110" stroke="white" stroke-width="4" stroke-linecap="round" fill="none" opacity="0.8"/>
  
  <!-- Central highlight -->
  <ellipse cx="90" cy="92.5" rx="22.5" ry="35" fill="white" opacity="0.25"/>
  
  <!-- Small FPJ text at bottom -->
  <text x="90" y="170" font-family="Arial, sans-serif" font-size="16" font-weight="bold" fill="#666" text-anchor="middle">FPJ</text>
</svg>