<svg width="32" height="32" viewBox="0 0 32 32" xmlns="http://www.w3.org/2000/svg">
  <defs>
    <linearGradient id="brand-gradient-32" x1="0%" y1="0%" x2="100%" y2="100%">
      <stop offset="0%" style="stop-color:#3b82f6"/>
      <stop offset="50%" style="stop-color:#8b5cf6"/>
      <stop offset="100%" style="stop-color:#06b6d4"/>
    </linearGradient>
    <linearGradient id="brain-gradient-32" x1="0%" y1="0%" x2="100%" y2="100%">
      <stop offset="0%" style="stop-color:#f59e0b"/>
      <stop offset="50%" style="stop-color:#ef4444"/>
      <stop offset="100%" style="stop-color:#ec4899"/>
    </linearGradient>
  </defs>
  
  <!-- Brand ring -->
  <circle cx="16" cy="16" r="15" fill="url(#brand-gradient-32)"/>
  <circle cx="16" cy="16" r="12" fill="#1e293b"/>
  
  <!-- Brain hemispheres -->
  <path d="M10 12 Q8 9 10 8 Q12 7 14 9 Q13 11 12 13 Q10 15 8 17 Q7 19 9 20 Q11 21 13 19 Q12 17 11 15 Q10 13 10 12 Z" 
        fill="url(#brain-gradient-32)" opacity="0.9"/>
  <path d="M22 12 Q24 9 22 8 Q20 7 18 9 Q19 11 20 13 Q22 15 24 17 Q25 19 23 20 Q21 21 19 19 Q20 17 21 15 Q22 13 22 12 Z" 
        fill="url(#brain-gradient-32)" opacity="0.9"/>
  <path d="M14 14 Q16 13 18 14 Q16 15 14 14" fill="url(#brain-gradient-32)" opacity="0.7"/>
  
  <!-- Brand dots -->
  <circle cx="6" cy="16" r="1.5" fill="#60a5fa"/>
  <circle cx="26" cy="16" r="1.5" fill="#60a5fa"/>
</svg>