<svg width="32" height="32" viewBox="0 0 32 32" fill="none" xmlns="http://www.w3.org/2000/svg">
  <!-- Brain-inspired design for FirstPharmaJob -->
  <defs>
    <linearGradient id="brainGradient" x1="0%" y1="0%" x2="100%" y2="100%">
      <stop offset="0%" style="stop-color:#3B82F6;stop-opacity:1" />
      <stop offset="50%" style="stop-color:#8B5CF6;stop-opacity:1" />
      <stop offset="100%" style="stop-color:#EC4899;stop-opacity:1" />
    </linearGradient>
  </defs>
  
  <!-- Main brain shape -->
  <path d="M16 4C20.5 4 24 7.5 24 12C24 13.5 23.5 15 22.5 16C26 17 28 20 28 24C28 26.5 26.5 28 24 28H8C5.5 28 4 26.5 4 24C4 20 6 17 9.5 16C8.5 15 8 13.5 8 12C8 7.5 11.5 4 16 4Z" fill="url(#brainGradient)"/>
  
  <!-- Brain details/folds -->
  <path d="M12 10C13 9 15 9 16 10C17 9 19 9 20 10" stroke="white" stroke-width="1.5" stroke-linecap="round" fill="none" opacity="0.7"/>
  <path d="M10 14C11 13 13 13 14 14C15 13 17 13 18 14" stroke="white" stroke-width="1.5" stroke-linecap="round" fill="none" opacity="0.7"/>
  <path d="M14 18C15 17 17 17 18 18" stroke="white" stroke-width="1.5" stroke-linecap="round" fill="none" opacity="0.7"/>
  
  <!-- Central highlight -->
  <ellipse cx="16" cy="16" rx="4" ry="6" fill="white" opacity="0.2"/>
</svg>